<svg width="512" height="512" xmlns="http://www.w3.org/2000/svg"><style>
    .f {bfont-family: sans-serif; fill: #15a; font-size: 40px }
    .f tspan { font-variant-caps: small-caps }
    .p { fill: none; stroke-linecap: round }
  </style>
  <path class="p"
    d="M296.565 326.682a113.8 113.8 0 0083.174 45.585 106.453 106.453 0 000-212.906c-76.034 0-121.649 106.453-121.649 106.453s-45.658 106.453-121.766 106.453a106.453 106.453 0 010-212.906 113.933 113.933 0 0183.144 45.732"
    stroke="#f93" stroke-width="20" />
  <path class="p"
    d="M296.742 307.812a110.882 110.882 0 0081.04 44.417 103.724 103.724 0 000-207.448c-74.083 0-118.528 103.724-118.528 103.724s-44.488 103.724-118.645 103.724a103.724 103.724 0 010-207.448 111.012 111.012 0 0181.013 44.56"
    stroke="#15a" stroke-width="30" />
  <path class="p"
    d="M297.135 322.42a121.48 121.48 0 0088.788 48.662 113.637 113.637 0 000-227.274c-81.165 0-129.858 113.637-129.858 113.637s-48.74 113.637-129.984 113.637a113.637 113.637 0 010-227.274 121.621 121.621 0 0188.756 48.818"
    stroke="#529" stroke-width="4" /><text class="f" style="line-height:1.25"
    transform="translate(-130.962 -255.173) scale(2.1127)">
    <tspan x="111" y="256">D</tspan>
  </text><text class="f" style="line-height:1.25" transform="translate(111.354 -255.173) scale(2.1127)">
    <tspan x="111" y="256">O</tspan>
  </text>
</svg>
