<svg xmlns="http://www.w3.org/2000/svg" width="398" height="398" shape-rendering="geometricPrecision" text-rendering="geometricPrecision" image-rendering="optimizeQuality" fill-rule="evenodd" clip-rule="evenodd"><path fill="#002051" d="M311.5 150.5c-76.999-10.667-153.999-10.667-231 0-.167-21.669 0-43.336.5-65 2.904-12.57 10.737-20.07 23.5-22.5l83-25a72.496 72.496 0 0117 0l90 27c8.596 2.93 14.096 8.763 16.5 17.5.5 22.664.667 45.331.5 68z" opacity=".995"/><path fill="#e6e9ee" d="M245.5 89.5h6v4h-4v3h3v4h-3v11h-5v-11h-3v-4h3c-.591-3.175.409-5.509 3-7z"/><path fill="#e4e8ed" d="M160.5 89.5c3.661-.15 4.661 1.35 3 4.5-3.793.487-4.793-1.013-3-4.5z"/><path fill="#f4f6f8" d="M151.5 111.5a98.432 98.432 0 00-.5-14c-1.039.744-1.539 1.744-1.5 3a34.512 34.512 0 00-3 11h-5a43.278 43.278 0 00-3-10c.039-1.256-.461-2.256-1.5-3a84.902 84.902 0 00-.5 13h-4v-21a13.118 13.118 0 017 1 60.008 60.008 0 014.5 13 298.062 298.062 0 014.5-13 13.118 13.118 0 017-1v21h-4z"/><path fill="#eaedf1" d="M254.5 92.5h4v4h3v4h-3v7h3v4c-2.865.445-5.365-.222-7.5-2a31.117 31.117 0 00-2.5-11 38.624 38.624 0 003-6z"/><path fill="#f4f5f7" d="M159.5 96.5h5v15h-5v-15z"/><path fill="#e3e6ec" d="M171.5 96.5h8v4c-6.162-1.344-8.162.822-6 6.5 1.973.495 3.973.662 6 .5v4c-8.595 1.889-12.762-1.444-12.5-10 1.025-2.187 2.525-3.854 4.5-5z"/><path fill="#f2f3f6" d="M181.5 96.5c3.435.868 6.769.868 10 0v4c-1.89-.203-3.39.463-4.5 2a40.914 40.914 0 00-.5 9h-5v-15z"/><path fill="#eef0f3" d="M196.5 96.5c8.991-1.507 12.825 2.16 11.5 11-4.053 4.508-8.72 5.174-14 2-2.533-5.149-1.7-9.482 2.5-13zM212.5 96.5h8a8.43 8.43 0 01-.5 4c-1.356-.88-2.856-1.213-4.5-1v3c5.208-.131 6.875 2.202 5 7a4.457 4.457 0 01-2 1.5 40.914 40.914 0 01-9 .5v-4c8.538 1.488 9.038.155 1.5-4-.833-2.671-.333-5.004 1.5-7z"/><path fill="#ebedf1" d="M226.5 96.5c11.308-1.205 14.642 3.295 10 13.5-9.021 3.949-13.521 1.116-13.5-8.5a27.248 27.248 0 013.5-5z"/><path fill="#7f8fa7" d="M151.5 111.5l-2-11c-.039-1.256.461-2.256 1.5-3 .499 4.655.666 9.321.5 14z"/><path fill="#465d80" d="M138.5 101.5l-2 10a84.902 84.902 0 01.5-13c1.039.744 1.539 1.744 1.5 3z"/><path fill="#042352" d="M198.5 100.5c4.828-.115 6.161 2.052 4 6.5-4.93.427-6.263-1.74-4-6.5z"/><path fill="#122a58" d="M228.5 100.5h5v7c-5.365.264-7.032-2.069-5-7z"/><path fill="#515255" d="M311.5 150.5a251.563 251.563 0 0131 5.5c6.239 3.3 9.905 8.467 11 15.5a1481.9 1481.9 0 01-15.5 75c-7.296 8.275-16.13 10.275-26.5 6a146.585 146.585 0 01-12-2c-69.018-9.285-138.018-9.285-207 0a63.084 63.084 0 00-12 2c-10.73 4.4-19.563 2.067-26.5-7A1431.206 1431.206 0 0139.5 172c.51-8.519 4.844-14.186 13-17a569.435 569.435 0 0128-4.5c77.001-10.667 154.001-10.667 231 0z" opacity=".999"/><path fill="#fdfdfd" d="M155.5 149.5a936.587 936.587 0 01167 9.5 80.423 80.423 0 0120 5c1.987 2.14 3.32 4.64 4 7.5a3326.24 3326.24 0 00-12.5 65c-.511 7.512-4.511 11.179-12 11-84.331-14.624-168.665-14.624-253 0-4.333 0-7.333-2-9-6A5197.827 5197.827 0 0146.5 171c.812-4.15 3.146-7.15 7-9a1066.589 1066.589 0 01102-12.5z"/><path fill="#2e2e2e" d="M142.5 180.5c5.344-.166 10.677.001 16 .5 4.726 2.388 6.226 6.222 4.5 11.5-.93 2.052-2.43 3.552-4.5 4.5a94.102 94.102 0 0110 13 16.242 16.242 0 01-8 0 82.262 82.262 0 01-7-10 8.43 8.43 0 00-4-.5v11h-7v-30z"/><path fill="#303030" d="M168.5 179.5c7.674-.166 15.341 0 23 .5.906 1.699 1.239 3.533 1 5.5h-9v24h-7v-24h-8v-6z"/><path fill="#292929" d="M197.5 179.5h7v30h-7v-30z"/><path fill="#6f6f6f" d="M230.5 180.5h-17c.31 3.213-.023 6.213-1 9v-10c6.19-.323 12.19.01 18 1z"/><path fill="#2b2b2b" d="M230.5 180.5v5h-11v7h10v6h-10v3c-.973 2.448-1.306 5.115-1 8h-6v-20c.977-2.787 1.31-5.787 1-9h17z"/><path fill="#313131" d="M236.5 180.5h7a300.808 300.808 0 01-1 30h-7c.49-9.994.823-19.994 1-30z"/><path fill="#2d2d2d" d="M130.5 206.5h6v5c-6.009.201-12.009.534-18 1a324.548 324.548 0 00-1-30 105.279 105.279 0 0117-1c.239 1.967-.094 3.801-1 5.5a40.914 40.914 0 01-9 .5v6h10v6h-9v7h5z"/><path fill="#2c2c2c" d="M264.5 193.5c.709.904 1.709 1.237 3 1v5h-9c-.968 2.107-1.302 4.441-1 7h9c1.193.47 1.86 1.47 2 3l-1 3a77.74 77.74 0 00-17-1c.666-9.986.999-19.986 1-30h18v6h-11v6h6z"/><path fill="#2f2f2f" d="M276.5 182.5a63.692 63.692 0 0120 3.5c4.24 2.646 6.24 6.479 6 11.5-.48 10.813-6.147 16.146-17 16-3.68-.279-7.347-.612-11-1a832.642 832.642 0 002-30z"/><path fill="#2e2e2e" d="M97.5 183.5h13v6c-12.54-1.968-17.04 3.032-13.5 15 4.644 4.937 9.644 5.271 15 1 1.412 4.554-.088 7.388-4.5 8.5-12.512 2.317-18.845-2.85-19-15.5a19.87 19.87 0 011.5-8 72.647 72.647 0 017.5-7z"/><path fill="#ededed" d="M149.5 185.5c6.725-.296 8.391 2.371 5 8a9.108 9.108 0 01-5 1v-9z"/><path fill="#fafafa" d="M283.5 189.5c9.205-.294 12.705 4.04 10.5 13a11.532 11.532 0 01-3.5 4.5 40.914 40.914 0 01-9 .5l2-18z"/><path fill="#949494" d="M264.5 193.5h4c.295 2.235-.039 4.235-1 6v-5c-1.291.237-2.291-.096-3-1z"/><path fill="#696969" d="M219.5 201.5v9c-2.559.302-4.893-.032-7-1h6c-.306-2.885.027-5.552 1-8z"/><path fill="#7b7b7b" d="M130.5 206.5c2.107-.968 4.441-1.302 7-1 .295 2.235-.039 4.235-1 6v-5h-6z"/><path fill="#a7a7a7" d="M258.5 199.5v6c2.885-.306 5.552.027 8 1h-9c-.302-2.559.032-4.893 1-7z"/><path fill="#0077d3" d="M299.5 250.5c-.089 16.437-5.589 30.77-16.5 43-24.724 24.875-53.724 43.208-87 55-32.858-11.563-61.524-29.563-86-54-11.097-12.534-16.93-27.201-17.5-44 68.982-9.285 137.982-9.285 207 0z"/><path fill="#002254" d="M92.5 250.5c.57 16.799 6.403 31.466 17.5 44 24.476 24.437 53.142 42.437 86 54 33.276-11.792 62.276-30.125 87-55 10.911-12.23 16.411-26.563 16.5-43 3.939.827 7.939 1.494 12 2-.152 12.959-3.652 24.959-10.5 36-15.44 21.773-34.94 38.94-58.5 51.5a262.855 262.855 0 01-46.5 20.5c-31.459-10.304-59.626-26.138-84.5-47.5-18.17-16.173-28.503-36.339-31-60.5a63.084 63.084 0 0112-2z" opacity=".973"/></svg>
