<svg version="1.0" xmlns="http://www.w3.org/2000/svg" viewBox="0 0 1024.000000 1024.000000"
 preserveAspectRatio="xMidYMid meet">
<g transform="translate(0.000000,1024.000000) scale(0.100000,-0.100000)"
fill="#000000" stroke="none">
<path d="M4571 8647 c-26 -9 -50 -33 -92 -93 -102 -143 -516 -586 -582 -621
-14 -7 -26 -54 -58 -239 -22 -126 -56 -305 -76 -399 -20 -93 -40 -192 -45
-220 -26 -146 -51 -271 -57 -277 -4 -4 -17 19 -30 52 -30 76 -80 134 -142 166
l-49 24 0 65 0 65 43 0 c114 0 114 77 -2 286 -64 116 -131 197 -217 260 -134
99 -205 124 -354 124 -164 0 -292 -49 -390 -150 -163 -168 -206 -419 -108
-629 47 -101 176 -225 289 -280 47 -22 96 -41 109 -41 61 0 -9 -21 -150 -45
-309 -52 -434 -52 -715 0 -231 42 -325 71 -479 148 -61 30 -86 37 -111 33 -55
-11 -94 -69 -97 -146 -3 -72 41 -110 202 -179 99 -41 321 -109 445 -135 106
-22 329 -46 430 -46 217 0 387 27 635 100 91 27 197 54 235 59 102 15 217 13
256 -4 23 -9 28 -14 15 -15 -41 0 -102 -41 -149 -99 -84 -104 -137 -252 -137
-382 l0 -75 -35 -17 c-43 -21 -122 -92 -130 -118 -5 -14 -16 -19 -41 -19 -52
0 -96 -23 -138 -71 -50 -58 -75 -114 -76 -169 -1 -42 -4 -48 -66 -104 -65 -59
-65 -59 -103 -47 -54 16 -82 14 -145 -9 -60 -23 -111 -72 -146 -140 -20 -40
-29 -98 -17 -117 4 -6 -13 -30 -37 -55 l-43 -45 -51 10 c-42 9 -61 8 -105 -6
-68 -22 -138 -81 -161 -139 -10 -24 -26 -61 -37 -83 -10 -22 -19 -48 -19 -57
0 -10 -29 -36 -72 -64 -40 -26 -86 -57 -102 -71 -15 -13 -45 -31 -65 -39 -20
-8 -52 -30 -71 -49 -23 -22 -52 -38 -83 -45 -153 -34 -269 -165 -270 -304 0
-73 24 -126 81 -178 51 -47 100 -62 177 -56 144 12 258 110 309 266 18 52 19
158 3 192 -6 12 5 24 40 45 26 17 72 48 103 71 47 34 66 42 117 46 98 9 185
81 219 183 9 24 23 47 32 49 10 3 51 40 92 81 64 64 80 75 110 75 78 1 179 80
220 172 14 33 32 53 63 71 23 14 67 48 99 76 33 30 66 51 80 51 33 1 93 24
134 51 19 13 55 56 80 96 25 40 60 81 78 92 18 11 41 29 51 41 24 27 39 26 24
-2 -7 -13 -15 -81 -19 -153 -5 -107 -10 -137 -28 -167 -12 -21 -28 -62 -37
-93 -14 -47 -22 -58 -49 -69 -38 -16 -66 -51 -104 -133 -23 -50 -27 -72 -27
-154 -1 -94 -2 -98 -32 -132 -68 -77 -122 -198 -144 -317 -7 -39 -25 -106 -39
-148 -25 -70 -30 -77 -61 -85 -19 -5 -47 -21 -62 -35 -59 -56 -127 -246 -127
-354 0 -57 0 -57 -71 -134 -107 -115 -187 -301 -176 -408 4 -38 -1 -69 -18
-121 -21 -62 -30 -74 -74 -105 -88 -62 -159 -193 -177 -327 -12 -96 48 -222
126 -260 62 -31 70 -39 70 -76 0 -18 7 -53 15 -80 8 -26 26 -114 40 -195 15
-81 28 -149 30 -151 13 -13 25 66 25 165 l0 114 24 0 c26 0 63 38 72 75 5 19
-32 190 -51 237 -5 12 -2 18 8 18 22 0 86 76 113 135 48 105 52 192 12 287
-15 36 -17 51 -9 66 6 12 11 36 11 55 0 33 1 35 46 40 34 3 55 13 81 38 42 41
106 169 130 260 16 64 16 68 -3 127 l-20 61 54 12 c104 21 167 106 227 309 26
86 27 99 17 155 -6 33 -14 70 -18 82 -6 21 -3 23 25 23 42 0 78 20 122 67 46
47 72 99 93 184 19 79 20 121 1 173 -16 47 -15 51 33 75 20 11 49 32 64 48 27
29 58 100 58 134 0 30 13 22 37 -20 44 -77 128 -156 206 -194 176 -86 508
-160 759 -169 38 -2 68 -5 68 -8 0 -3 -11 -21 -24 -40 -42 -63 -95 -224 -166
-512 -97 -388 -107 -423 -147 -501 -46 -87 -84 -121 -387 -348 -684 -510 -706
-528 -859 -684 -204 -207 -351 -444 -493 -794 l-22 -54 -42 84 c-71 142 -129
213 -265 327 -66 56 -55 13 20 -75 92 -107 148 -203 180 -303 15 -47 35 -106
45 -133 10 -26 16 -47 13 -47 -2 0 -24 16 -48 36 -30 24 -51 53 -65 87 l-21
52 5 -70 c3 -38 8 -86 11 -105 l6 -35 -46 49 c-33 35 -50 65 -63 107 -16 57
-32 77 -32 42 1 -36 29 -152 45 -182 8 -17 13 -31 10 -31 -3 0 -26 19 -52 43
-29 26 -59 68 -80 112 l-33 70 6 -50 c3 -27 19 -84 35 -124 16 -41 26 -77 24
-79 -2 -3 -29 14 -60 37 -38 29 -64 59 -85 99 -16 31 -29 54 -30 51 -1 -14 50
-149 65 -173 38 -58 -59 -14 -131 59 -30 31 -54 52 -54 47 0 -4 20 -36 45 -70
l45 -62 -31 0 c-49 0 -450 -59 -582 -85 -160 -33 -497 -117 -497 -125 0 -3 64
0 142 7 334 30 679 54 903 63 371 15 1523 30 1679 22 77 -4 745 -4 1485 0
3186 17 3492 16 4205 -17 186 -9 340 -14 343 -12 12 13 -383 96 -602 126 -82
12 -181 26 -218 32 l-69 11 20 22 c24 25 95 166 88 173 -2 3 -12 -10 -22 -29
-28 -56 -83 -117 -130 -144 -25 -15 -47 -24 -50 -22 -2 3 21 67 51 143 59 145
68 191 17 81 -36 -77 -97 -146 -159 -181 -25 -14 -47 -25 -49 -25 -4 0 7 27
65 157 86 192 134 448 135 718 1 223 -13 285 -79 343 -39 35 -42 41 -48 103
-7 75 -39 180 -68 220 -17 24 -17 28 -3 40 47 39 55 115 28 282 -19 123 -37
173 -72 210 -35 37 -36 89 -2 135 35 48 40 159 11 272 -23 91 -43 130 -71 137
-19 5 -22 20 -36 201 -5 68 -4 82 8 82 8 0 42 14 75 30 91 45 213 199 213 269
0 32 -25 75 -54 95 -23 14 -26 24 -26 69 0 75 -24 146 -65 194 -34 40 -45 73
-26 73 13 0 115 -86 161 -135 57 -60 103 -79 190 -80 70 0 78 2 122 34 66 47
92 104 85 180 -2 32 -11 67 -18 78 -10 17 -9 27 5 58 42 89 1 201 -129 349
-72 82 -84 100 -75 116 5 10 10 59 10 108 0 80 -3 95 -32 153 -29 58 -102 142
-156 179 -16 11 -31 48 -57 138 -20 68 -43 141 -51 163 -21 52 -67 84 -120 84
-41 0 -41 0 -93 86 -72 120 -78 139 -61 191 7 24 14 72 14 108 1 55 -4 76 -32
133 -20 41 -47 78 -69 94 -34 26 -44 28 -122 27 -66 0 -97 -5 -133 -22 -27
-12 -48 -18 -48 -14 1 35 53 252 74 306 24 63 25 70 11 100 -10 21 -44 50
-109 91 -52 33 -234 153 -403 266 -226 152 -333 230 -400 293 l-92 87 -93 15
c-51 8 -138 26 -193 40 -117 30 -457 108 -565 130 -41 8 -85 17 -97 20 -13 2
-23 10 -23 18 0 8 -25 17 -72 25 -40 7 -136 28 -213 46 -288 68 -532 124 -605
139 -41 9 -131 29 -200 46 -169 41 -170 41 -209 27z m66 -128 c40 -15 556
-142 731 -179 28 -7 52 -14 52 -17 0 -3 -19 -27 -42 -52 -24 -26 -70 -82 -103
-125 -33 -43 -97 -123 -142 -177 -45 -54 -107 -132 -139 -174 -31 -41 -61 -75
-67 -75 -5 0 -58 13 -116 29 -58 16 -162 44 -231 61 -69 18 -199 52 -289 76
-91 24 -175 44 -188 44 -32 0 -29 12 10 40 97 71 430 450 468 534 14 29 17 30
56 15z m1029 -210 c43 -11 81 -22 83 -24 2 -2 -30 -39 -71 -82 -41 -43 -115
-120 -164 -172 -49 -52 -119 -126 -157 -165 -116 -121 -173 -210 -266 -406
-48 -102 -93 -201 -101 -220 -8 -19 -45 -88 -82 -155 -37 -66 -68 -123 -68
-128 0 -23 -63 -137 -76 -137 -27 0 -14 67 56 292 96 310 111 352 166 462 52
105 64 120 313 441 213 273 249 315 270 315 9 0 53 -9 97 -21z m314 -125 c30
-7 134 -29 230 -49 96 -20 250 -54 343 -77 l167 -41 -16 -26 c-39 -60 -485
-614 -504 -626 -14 -8 -99 9 -245 50 -66 19 -185 52 -265 74 -360 99 -340 92
-340 115 0 35 19 46 67 39 52 -7 55 4 7 35 -20 13 -34 26 -31 28 2 3 26 0 52
-6 61 -14 83 1 45 30 -21 16 -22 20 -10 34 10 13 23 15 57 10 51 -7 57 7 14
32 -41 24 -29 36 30 28 41 -5 49 -4 49 9 0 9 -10 23 -22 31 -36 25 -5 37 61
22 43 -10 39 9 -10 43 l-34 23 30 -5 c17 -3 40 -8 53 -12 20 -7 22 -4 22 34
l0 41 58 1 57 1 -57 26 c-32 15 -58 29 -58 33 0 3 24 18 53 33 l53 27 73 -16
c82 -17 101 -18 101 -7 0 5 -30 14 -67 22 -88 17 -93 19 -93 39 0 34 12 34
130 5z m929 -289 c23 -75 61 -281 91 -497 24 -175 25 -218 7 -218 -10 0 -24
73 -51 273 -21 149 -47 319 -57 376 -11 58 -19 111 -19 118 0 28 10 10 29 -52z
m-2831 -104 c27 -11 193 -58 368 -105 375 -99 438 -121 429 -144 -25 -58 -66
-193 -89 -287 l-28 -110 -46 -20 c-57 -23 -125 -91 -159 -159 -14 -28 -27 -52
-28 -54 -1 -2 -20 4 -41 12 -22 8 -133 40 -249 71 -115 31 -236 63 -268 72
-32 9 -60 13 -63 10 -7 -7 93 -39 271 -86 83 -21 197 -52 253 -67 l104 -29 -6
-35 c-3 -19 -6 -49 -6 -67 l0 -32 -72 25 c-40 14 -145 43 -233 65 -160 40
-355 97 -355 103 0 7 52 276 80 416 16 80 39 201 50 270 25 151 29 170 35 170
2 0 26 -9 53 -19z m3162 -152 c96 -59 362 -241 357 -245 -2 -2 -42 14 -90 36
-47 22 -99 43 -116 46 -18 4 -38 16 -46 28 -15 20 -15 19 -15 -12 l0 -32 -57
0 c-32 0 -74 -3 -94 -6 -35 -6 -37 -5 -57 37 -19 41 -52 203 -52 257 0 22 4
21 58 -26 31 -27 82 -65 112 -83z m-4215 96 c174 -46 340 -206 399 -387 28
-83 31 -98 18 -98 -5 0 -16 27 -26 59 -22 73 -79 171 -129 221 -52 52 -153
117 -222 141 -89 31 -210 43 -307 31 -46 -6 -84 -9 -86 -7 -7 6 36 25 90 39
71 19 190 20 263 1z m2401 -334 c77 -21 180 -48 229 -60 106 -25 352 -88 411
-104 l41 -12 -24 -75 c-154 -485 -290 -900 -367 -1122 -57 -166 -63 -178 -86
-178 -14 0 -86 16 -160 34 -74 19 -200 49 -280 66 -80 17 -169 38 -198 46 -49
15 -52 17 -46 42 4 15 10 31 15 36 5 6 127 -17 308 -57 291 -65 402 -86 391
-74 -3 3 -116 31 -250 61 -135 30 -289 65 -343 77 l-98 23 7 40 c3 23 8 43 10
45 6 6 418 -83 612 -133 50 -14 92 -21 92 -17 0 17 -145 54 -552 144 l-148 32
0 43 c0 39 2 42 23 37 12 -3 173 -43 357 -89 184 -46 337 -82 339 -80 12 11
-120 50 -406 120 l-321 79 -10 32 c-5 17 -7 34 -4 37 16 17 115 -2 414 -79
181 -47 332 -85 335 -85 2 0 2 4 -2 9 -7 12 -63 28 -275 81 -91 23 -201 52
-245 64 -44 13 -92 27 -108 30 -27 6 -27 7 35 54 53 40 69 60 103 127 36 71
40 88 40 150 -1 58 -6 79 -30 124 -17 30 -51 72 -77 94 l-46 41 20 50 c11 28
27 76 35 106 8 30 16 56 17 58 2 1 51 -14 110 -33 59 -20 115 -35 123 -33 9 2
-38 21 -105 42 -78 25 -122 44 -122 53 0 26 74 193 85 193 7 0 75 -18 151 -39z
m2263 -181 c-51 -133 -49 -131 -111 -135 -55 -3 -140 -25 -177 -45 -18 -9 -21
-8 -21 10 0 24 32 40 120 60 112 26 150 59 186 160 28 79 27 77 31 54 2 -12
-10 -59 -28 -104z m-1175 -40 c106 -56 203 -111 217 -122 l24 -19 -25 6 c-14
4 -88 31 -165 60 -77 29 -169 63 -205 75 -36 12 -78 29 -93 37 l-28 14 23 29
c14 18 30 28 41 26 10 -3 105 -50 211 -106z m810 -2 l44 -12 -46 -21 c-26 -13
-67 -38 -92 -58 -25 -20 -91 -70 -148 -113 -57 -42 -113 -93 -126 -113 -13
-20 -31 -42 -40 -50 -14 -11 -17 -10 -24 10 -15 38 19 75 169 189 77 58 153
122 170 143 34 42 32 41 93 25z m-2584 -136 c0 -11 -18 -37 -39 -59 -24 -24
-44 -57 -51 -84 -15 -53 -18 -150 -7 -201 10 -48 -6 -50 -30 -5 -13 24 -18 55
-18 122 0 77 3 96 25 135 20 36 98 110 116 110 2 0 4 -8 4 -18z m291 -108 c66
-19 126 -64 145 -110 20 -48 17 -151 -5 -199 -26 -56 -88 -125 -128 -141 -62
-26 -113 -14 -113 28 0 14 8 18 34 18 130 0 225 156 173 283 -18 42 -35 55
-110 82 -36 13 -63 29 -65 39 -4 20 -2 20 69 0z m-1147 -9 c13 -8 119 -40 237
-70 117 -30 259 -69 315 -86 l101 -31 20 -74 c11 -41 18 -74 16 -74 -2 0 -12
4 -22 9 -23 13 -215 68 -436 126 -212 56 -285 81 -285 100 0 19 23 115 27 115
2 0 14 -7 27 -15z m206 -215 c345 -95 491 -140 520 -162 17 -12 30 -24 30 -27
0 -3 -18 -16 -41 -29 l-40 -23 -162 45 c-89 25 -231 63 -315 85 -144 37 -156
42 -208 86 -35 30 -53 53 -50 62 3 8 6 21 6 29 0 12 6 12 38 -1 20 -8 120 -37
222 -65z m-2637 25 c116 -64 269 -103 567 -145 126 -18 181 -21 295 -17 153 7
344 36 443 67 239 77 404 104 590 98 116 -5 148 -9 209 -32 156 -58 290 -152
363 -256 15 -22 -9 -4 -64 48 -138 129 -278 189 -486 207 -97 9 -180 -3 -430
-64 -479 -115 -676 -127 -1060 -60 -254 44 -414 91 -472 139 -37 31 -48 50
-28 50 5 0 38 -16 73 -35z m5925 -19 c58 -37 100 -90 118 -153 22 -76 15 -379
-11 -461 -23 -76 -69 -123 -125 -129 -55 -6 -116 9 -161 41 l-34 23 -75 -78
c-66 -70 -101 -95 -100 -71 1 4 35 43 76 87 l74 80 63 -22 c92 -31 114 -35
157 -23 42 11 62 37 73 98 12 59 28 435 21 475 -5 30 -20 54 -63 99 -31 32
-56 58 -54 58 2 0 20 -11 41 -24z m-288 -2 c0 -16 -84 -102 -263 -273 -69 -66
-91 -81 -98 -70 -5 8 -9 18 -9 23 0 24 335 335 363 336 4 0 7 -7 7 -16z
m-2193 -41 c-3 -10 -31 -79 -62 -153 -31 -74 -67 -164 -81 -200 -28 -74 -39
-89 -54 -74 -10 10 117 402 140 430 7 7 24 14 37 14 19 0 24 -4 20 -17z m1918
-49 c-16 -14 -52 -44 -79 -65 -27 -22 -128 -116 -225 -209 -196 -187 -270
-252 -283 -244 -18 12 -6 43 27 69 20 14 111 99 203 188 137 133 186 173 272
225 57 34 107 62 110 62 3 -1 -8 -12 -25 -26z m-2820 -24 c300 -78 495 -135
519 -153 16 -12 15 -14 -7 -35 l-23 -22 -161 40 c-89 21 -189 44 -224 49 -42
7 -66 16 -73 28 -5 10 -30 40 -55 67 -29 31 -38 46 -26 42 11 -5 34 -12 50
-16z m4084 -49 c6 -10 40 -56 77 -102 69 -88 144 -223 144 -260 0 -32 -21 -11
-71 74 -23 40 -78 124 -121 187 -80 118 -95 150 -58 130 11 -6 24 -19 29 -29z
m-159 -73 c35 -40 90 -102 123 -137 56 -60 59 -65 42 -78 -11 -7 -22 -13 -25
-13 -13 0 -137 137 -183 201 -84 119 -52 138 43 27z m-3658 -54 c101 -25 187
-49 192 -54 6 -6 2 -26 -9 -50 -15 -33 -23 -41 -39 -37 -122 28 -291 79 -298
89 -13 20 -48 87 -48 93 0 9 16 6 202 -41z m358 -38 c0 -7 -18 -25 -40 -40
-77 -51 -96 -143 -45 -215 58 -82 62 -88 29 -58 -34 30 -56 34 -74 12 -26 -31
-33 -16 -27 63 9 114 22 148 79 204 49 48 78 61 78 34z m1663 -85 c-145 -101
-190 -144 -210 -202 -10 -27 -21 -49 -24 -49 -4 0 -12 14 -18 31 -14 41 0 68
76 140 53 52 188 149 223 161 8 3 23 1 33 -4 15 -8 3 -20 -80 -77z m617 68 c0
-33 -35 -82 -93 -131 -64 -55 -81 -64 -143 -78 -42 -10 -50 -9 -61 6 -12 16
-8 19 39 31 67 17 110 48 184 127 33 35 62 64 67 65 4 0 7 -9 7 -20z m-2605
-83 c83 -24 111 -36 113 -50 7 -33 -12 -37 -104 -17 -116 25 -137 34 -157 65
-36 54 -36 54 148 2z m-885 -366 c7 -74 27 -220 46 -325 38 -207 41 -275 6
-125 -53 227 -102 600 -87 655 8 28 9 27 15 -20 4 -27 13 -111 20 -185z m929
168 c-27 -54 -24 -51 -46 -37 -27 16 -74 6 -159 -35 -102 -48 -171 -102 -220
-169 -53 -71 -73 -129 -54 -152 18 -22 32 -19 76 18 129 111 237 186 317 221
65 29 90 37 99 28 16 -16 1 -31 -110 -106 -53 -36 -124 -90 -157 -120 -127
-116 -223 -150 -267 -96 -47 58 3 201 107 306 47 47 84 72 170 114 122 59 148
67 218 69 l47 1 -21 -42z m3774 -142 c120 -82 247 -228 247 -284 0 -37 -27
-64 -35 -36 -42 136 -228 314 -330 314 -17 0 -29 -8 -36 -24 -15 -33 5 -68 96
-168 41 -45 71 -85 67 -89 -23 -23 -50 -10 -108 51 -66 70 -104 134 -104 175
0 32 24 80 47 95 32 19 101 5 156 -34z m-2934 -36 c257 -53 400 -87 415 -101
14 -12 -40 -22 -82 -14 -20 3 -98 19 -172 35 -74 16 -211 43 -305 62 -93 18
-172 33 -174 35 -11 8 25 33 48 33 14 0 136 -23 270 -50z m-1951 -38 c4 -12
-116 -104 -205 -156 -32 -19 -67 -43 -77 -55 -20 -22 -15 -51 9 -51 21 0 19
-16 -5 -40 -24 -24 -77 -27 -106 -6 -19 14 -19 15 0 51 28 51 88 102 138 116
24 6 52 22 63 33 34 37 158 127 169 123 5 -2 11 -8 14 -15z m1357 -12 c19 -11
43 -40 54 -64 30 -60 27 -118 -9 -194 -37 -79 -70 -112 -110 -112 -41 0 -39
23 4 50 42 26 86 109 86 162 0 45 -31 113 -59 127 -10 6 -37 13 -60 17 -32 5
-41 11 -41 27 0 18 5 19 51 14 28 -4 65 -16 84 -27z m2556 -2 c5 -101 -55
-195 -148 -234 -57 -24 -154 -29 -191 -10 -18 9 -32 21 -32 25 0 5 31 9 68 9
101 0 148 18 208 77 40 40 54 62 63 103 13 54 30 69 32 30z m-2256 -8 c22 -5
121 -21 220 -35 181 -26 379 -70 403 -88 9 -7 9 -13 1 -23 -14 -17 -36 -17
-132 -3 -66 10 -74 13 -70 30 3 10 3 19 1 19 -3 0 -27 4 -54 9 -27 5 -105 17
-174 25 -204 26 -260 41 -260 67 0 11 14 11 65 -1z m2792 -109 c71 -58 163
-131 205 -161 57 -40 78 -61 78 -77 0 -13 -6 -23 -14 -23 -39 0 -436 338 -436
370 0 21 50 -12 167 -109z m-1794 71 c29 -20 27 -32 -7 -32 -34 0 -116 -43
-188 -97 -66 -51 -88 -54 -88 -13 0 26 70 86 143 124 78 41 100 44 140 18z
m255 -15 c7 -53 -69 -144 -182 -218 -83 -55 -162 -52 -201 7 -31 48 26 85 69
45 36 -34 76 -27 145 24 55 40 71 59 125 148 20 33 40 31 44 -6z m-1341 -191
c32 -8 118 -23 190 -32 l133 -17 -7 -26 c-3 -14 -7 -27 -8 -28 -1 -2 -238 30
-312 42 -38 7 -63 29 -63 56 0 23 -5 22 67 5z m3325 -74 c25 -31 73 -85 106
-120 48 -49 66 -62 90 -62 44 0 72 39 73 104 l1 51 13 -30 c17 -37 19 -106 3
-140 -6 -14 -26 -35 -44 -46 l-33 -20 -45 30 c-39 27 -226 227 -234 252 -5 14
6 39 16 39 5 0 29 -26 54 -58z m-1382 -1 c0 -30 -19 -73 -43 -100 -30 -33 -67
-46 -241 -90 -127 -33 -164 -46 -232 -88 -87 -53 -180 -88 -263 -99 -45 -6
-57 -4 -82 15 -27 20 -37 21 -99 15 -39 -3 -70 -4 -70 -1 0 3 29 10 64 16 53
9 72 9 110 -4 37 -13 58 -14 99 -6 96 18 187 62 236 115 29 30 134 67 267 91
140 27 192 55 220 123 16 36 34 43 34 13z m1868 -6 c11 -14 30 -62 42 -107 12
-46 36 -103 52 -128 29 -43 30 -48 24 -119 -3 -41 -10 -79 -16 -85 -11 -11
-21 11 -67 169 -19 66 -47 157 -63 202 -16 44 -26 84 -23 87 13 12 32 5 51
-19z m-2093 -24 c0 -10 -23 -19 -69 -28 -89 -18 -198 -67 -216 -98 -13 -21
-17 -22 -34 -10 -17 13 -17 16 -4 37 18 26 109 83 165 104 50 18 158 14 158
-5z m-1020 -107 c89 -63 91 -64 235 -63 74 0 168 4 208 8 39 4 72 3 72 -1 0
-4 -1 -8 -2 -8 -2 0 -41 -7 -88 -15 -51 -9 -147 -15 -242 -15 l-157 0 -38 40
c-29 31 -49 42 -82 48 -25 4 -46 13 -49 21 -7 22 109 10 143 -15z m1829 0 c9
-3 16 -17 16 -30 0 -23 -3 -24 -63 -24 -35 0 -99 -9 -143 -20 -92 -24 -316
-70 -339 -70 -19 0 -20 34 -2 49 8 6 68 22 133 35 65 14 151 34 189 45 68 19
177 27 209 15z m855 -81 c64 -80 77 -108 67 -147 -12 -49 -116 -38 -144 16
-11 20 -11 37 1 103 9 43 13 84 10 92 -11 28 7 11 66 -64z m-5589 43 c0 -2
-24 -18 -54 -35 -85 -48 -111 -100 -58 -119 23 -9 19 -11 -35 -11 -69 -1 -93
5 -93 24 0 23 84 108 125 126 35 16 115 26 115 15z m780 -4 c0 -5 -11 -37 -25
-73 -14 -35 -36 -106 -50 -158 -21 -85 -35 -110 -57 -111 -35 -1 47 273 100
333 16 18 32 23 32 9z m4448 -44 c65 -62 87 -147 58 -227 -15 -41 -49 -69 -98
-80 -49 -11 -85 -3 -91 20 -4 16 0 19 26 19 41 0 95 28 120 62 16 21 18 35 13
70 -19 128 -112 157 -242 77 -40 -24 -41 -31 -13 -93 66 -149 -136 -302 -277
-210 -52 34 -112 120 -96 136 9 9 24 -1 63 -45 55 -62 105 -84 162 -72 80 17
134 101 106 161 -22 46 -70 64 -171 64 -83 0 -88 1 -88 22 0 20 2 21 99 15 84
-6 101 -4 112 9 19 23 127 95 158 105 14 5 48 6 75 4 39 -4 57 -12 84 -37z
m-2452 -23 c4 -8 3 -32 -1 -52 -12 -66 -190 -212 -240 -197 -48 15 -47 26 7
48 76 31 166 93 183 127 8 15 15 42 15 59 0 32 26 43 36 15z m-176 -20 c0 -8
-30 -32 -67 -54 -68 -39 -114 -82 -146 -133 -17 -27 -67 -41 -67 -19 0 13 95
154 116 172 36 31 79 48 122 49 30 0 42 -4 42 -15z m3291 -62 c54 -128 107
-221 154 -270 53 -55 77 -63 118 -41 42 22 48 39 42 111 -7 78 4 86 34 24 42
-87 14 -163 -70 -188 -90 -27 -173 36 -249 190 -45 90 -82 192 -76 208 10 25
27 13 47 -34z m-1330 -27 c-17 -27 -34 -37 -88 -54 -178 -56 -243 -65 -243
-34 0 32 31 49 140 76 58 14 128 35 155 45 28 11 51 15 53 10 2 -5 -6 -24 -17
-43z m-2686 -134 c141 -20 285 -34 440 -40 251 -11 293 -20 358 -73 71 -58 97
-139 73 -223 -33 -112 -130 -193 -244 -203 -44 -4 -84 1 -158 20 -94 24 -173
38 -484 87 -172 27 -331 59 -350 72 -12 7 -11 8 5 4 31 -8 264 -43 440 -66 88
-12 237 -35 330 -52 219 -39 266 -33 364 40 39 29 81 113 81 162 0 41 -29 108
-56 132 -11 10 -41 27 -67 38 -42 19 -77 22 -290 30 -256 9 -441 34 -637 85
-112 29 -86 27 195 -13z m-2325 -66 c-6 -8 -27 -20 -45 -26 -37 -12 -88 -65
-82 -84 2 -6 16 -13 31 -16 l28 -5 -24 -21 c-12 -12 -36 -29 -51 -39 -27 -17
-28 -17 -42 1 -20 26 -18 74 3 106 34 52 109 97 161 98 28 0 32 -2 21 -14z
m6241 -169 c11 -21 23 -60 26 -87 6 -53 11 -49 -69 -65 -22 -4 -23 5 -3 31 8
10 15 38 15 60 0 51 -27 88 -75 104 -29 10 -35 17 -41 48 -3 20 -8 46 -11 56
-9 31 135 -103 158 -147z m-2531 122 c188 -17 234 -35 212 -84 -14 -30 -17
-30 -90 -6 -110 37 -376 51 -474 26 -23 -6 -28 -4 -28 12 0 20 32 55 60 66 17
7 161 1 320 -14z m2212 -26 c47 -23 70 -84 99 -262 12 -68 11 -75 -6 -87 -10
-8 -22 -14 -25 -14 -4 0 -10 42 -13 93 -8 108 -19 152 -50 197 -29 44 -69 57
-102 36 -31 -21 -32 -40 -4 -232 22 -160 22 -199 -1 -199 -11 0 -17 26 -27
115 -7 63 -20 148 -28 189 -21 102 -19 133 8 158 12 11 29 23 37 25 21 7 80
-2 112 -19z m-1580 -45 c155 -2 238 -7 238 -13 0 -6 -8 -18 -19 -27 -10 -8
-20 -21 -23 -28 -3 -10 -46 -10 -203 -1 -233 14 -255 17 -280 35 -28 20 -12
49 22 42 16 -3 135 -7 265 -8z m513 -59 c129 -23 198 -53 203 -87 3 -19 0 -23
-15 -18 -10 3 -79 17 -153 31 -219 41 -205 36 -208 74 -3 33 -3 34 30 27 18
-4 83 -16 143 -27z m-1072 -126 c103 -5 119 -9 128 -25 6 -11 8 -23 4 -26 -18
-18 -514 4 -533 23 -2 2 -1 13 3 26 8 24 -1 24 398 2z m719 -39 c19 -6 31 -31
22 -46 -5 -7 -63 -9 -178 -5 -203 7 -281 24 -261 57 6 10 55 11 204 6 108 -4
203 -9 213 -12z m-3646 -75 c-9 -29 -16 -63 -16 -77 0 -29 36 -82 56 -82 21 0
18 -7 -26 -46 -58 -52 -106 -158 -135 -296 -6 -32 -41 -39 -52 -11 -9 22 34
144 74 211 37 61 37 63 21 108 -10 28 -8 44 16 117 44 136 100 205 62 76z
m3909 22 c154 -36 213 -43 252 -29 31 11 36 11 49 -7 13 -18 13 -22 -7 -37
-27 -23 -56 -23 -209 2 -197 32 -223 43 -188 78 15 15 8 15 103 -7z m400 -132
c17 -11 69 -40 116 -64 74 -38 159 -108 146 -121 -4 -4 -75 22 -162 59 -72 32
-165 103 -165 127 0 26 26 26 65 -1z m-5750 -85 c82 -57 89 -70 73 -131 -15
-62 -89 -137 -151 -154 -164 -44 -256 102 -146 234 30 36 121 97 146 97 7 0
42 -21 78 -46z m5631 6 c29 -17 75 -51 104 -76 48 -44 57 -48 175 -74 77 -17
155 -42 203 -65 l77 -37 -55 -25 -55 -24 -20 24 c-40 49 -178 97 -277 97 -32
0 -58 4 -58 9 0 5 -36 44 -81 87 -44 44 -85 87 -90 97 -15 27 15 22 77 -13z
m-1108 -75 c149 -73 300 -135 432 -177 69 -22 143 -48 165 -58 22 -11 63 -28
92 -39 29 -11 88 -38 131 -60 43 -21 99 -42 124 -46 43 -7 49 -11 82 -65 67
-108 164 -164 286 -164 137 -1 249 62 286 162 10 26 18 48 20 50 1 2 32 8 69
14 38 5 88 19 112 29 25 10 45 19 46 19 1 0 0 -84 -1 -186 -5 -223 2 -250 80
-318 49 -43 50 -44 34 -68 -24 -36 -47 -172 -40 -232 11 -103 41 -181 89 -234
41 -46 45 -54 38 -82 -5 -17 -5 -86 0 -153 l7 -122 -30 -60 c-37 -73 -54 -141
-75 -305 -9 -69 -26 -161 -37 -205 -14 -52 -23 -123 -25 -200 -4 -104 -1 -133
20 -215 14 -52 28 -103 32 -112 4 -10 3 -18 -3 -18 -19 0 -73 65 -100 120
l-27 55 -5 -95 -5 -95 -33 82 c-19 44 -41 107 -51 140 l-18 58 -2 -55 c-1 -30
-5 -86 -9 -125 l-7 -70 -32 65 c-18 36 -38 101 -46 145 l-15 80 -1 -65 c0 -36
8 -107 19 -159 11 -52 18 -96 16 -98 -2 -3 -14 0 -25 7 -29 15 -71 84 -92 150
l-18 55 0 -66 c-1 -37 6 -85 13 -108 15 -42 32 -161 24 -161 -3 0 -16 27 -28
60 -37 98 -83 127 -251 160 -126 24 -157 42 -187 104 -29 60 -38 173 -41 513
-2 221 -1 232 18 238 36 11 101 65 124 102 49 79 72 201 47 258 -7 16 -9 13
-9 -15 -1 -51 -27 -142 -55 -199 -24 -46 -123 -147 -134 -136 -3 3 -8 229 -12
503 -5 476 -6 499 -26 542 -36 77 -142 172 -414 370 -265 194 -676 530 -648
530 3 0 47 -20 96 -45z m1933 -52 c0 -10 6 -94 13 -188 13 -186 12 -205 -14
-205 -15 0 -18 16 -24 138 -3 75 -9 167 -13 205 -5 64 -5 67 16 67 13 0 21 -6
22 -17z m-1069 -109 c62 -26 126 -53 143 -62 28 -14 28 -16 10 -23 -31 -12
-83 0 -164 38 -41 19 -96 37 -123 40 -37 5 -48 10 -48 24 0 42 49 37 182 -17z
m500 -34 c81 -30 128 -61 128 -87 0 -21 -26 -26 -57 -10 -55 29 -99 36 -128
21 -15 -8 -31 -14 -35 -14 -11 0 -24 96 -15 110 9 14 15 13 107 -20z m-4452
-71 c0 -51 -35 -190 -60 -239 -20 -39 -75 -100 -90 -100 -22 0 -19 24 8 58 16
20 36 51 45 67 14 29 60 173 72 228 8 41 25 32 25 -14z m4327 -155 c83 -40
138 -43 203 -11 35 18 70 22 70 9 0 -14 -42 -48 -85 -70 -119 -59 -244 -23
-299 85 -30 59 -16 104 17 53 13 -20 45 -43 94 -66z m-1845 -297 c103 -73 263
-176 433 -279 72 -44 191 -121 266 -171 l137 -91 -5 -341 c-2 -187 -8 -497
-13 -690 -9 -342 -10 -353 -40 -474 -16 -67 -30 -135 -30 -150 l0 -27 -276 4
c-227 4 -278 2 -285 -9 -7 -11 -9 -11 -9 -1 0 19 36 158 55 212 22 62 3 38
-24 -31 -20 -51 -49 -86 -120 -144 l-24 -20 16 30 c19 38 61 175 55 181 -3 2
-19 -18 -37 -45 -31 -49 -129 -146 -138 -137 -3 2 11 40 31 83 43 96 66 189
65 263 l-1 55 -17 -80 c-24 -114 -73 -207 -149 -284 -34 -35 -65 -61 -67 -59
-3 3 13 43 34 89 45 96 81 223 81 283 -1 37 -4 32 -31 -51 -31 -98 -83 -184
-147 -246 l-39 -39 19 57 c55 165 84 325 59 325 -5 0 -14 -23 -20 -51 -6 -28
-23 -74 -37 -102 -31 -64 -144 -226 -144 -208 0 8 20 57 44 110 79 172 118
336 119 496 1 135 -13 195 -71 309 -58 114 -149 213 -234 256 -34 16 -67 30
-75 30 -27 0 -11 -29 30 -53 106 -63 221 -282 234 -446 16 -213 -99 -591 -209
-685 -47 -41 -79 -52 -193 -67 -93 -13 -372 -6 -427 11 -123 37 -160 168 -103
365 38 132 118 263 204 337 44 38 50 48 26 48 -68 0 -233 -155 -293 -277 -66
-132 -89 -229 -95 -395 -2 -48 -5 -89 -8 -92 -4 -5 -48 56 -119 169 -18 28
-28 41 -24 30 36 -99 43 -128 44 -182 0 -34 -5 -74 -12 -90 -11 -27 -11 -26
-19 28 -4 32 -23 97 -42 145 -19 49 -37 98 -41 108 -14 41 -17 3 -6 -92 7 -54
10 -110 8 -123 -3 -21 -6 -19 -28 21 -13 25 -34 77 -46 115 l-23 70 2 -143 c1
-78 0 -142 -3 -142 -3 0 -21 33 -40 73 -40 82 -71 108 -152 127 -83 20 -150
48 -186 78 l-34 28 144 134 c79 74 202 187 273 250 71 63 231 209 355 324 124
115 277 252 340 304 174 144 329 304 394 404 82 126 219 422 349 753 l31 81
102 -106 c56 -58 140 -131 186 -163z m2691 16 c4 -27 10 -108 13 -180 6 -119
5 -133 -9 -133 -21 0 -24 13 -46 183 -15 118 -15 141 -4 157 24 34 40 24 46
-27z m142 -236 c37 -37 48 -78 65 -238 8 -68 8 -104 0 -124 -6 -16 -14 -24
-19 -19 -4 5 -16 77 -26 159 -21 175 -27 200 -57 232 -34 36 -1 28 37 -10z
m-102 -304 c14 -51 47 -346 47 -419 0 -37 -3 -44 -20 -44 -11 0 -20 1 -21 3 0
1 -7 79 -14 172 -7 94 -17 200 -21 238 -6 57 -5 67 9 67 9 0 18 -8 20 -17z
m-5908 -183 c23 -44 101 -60 143 -27 21 17 26 -1 14 -53 -14 -58 -77 -163 -95
-157 -6 2 -15 20 -18 41 -7 43 -21 61 -43 53 -15 -6 -17 -12 -39 -162 l-13
-90 -43 85 c-39 75 -43 89 -38 133 8 62 46 146 83 180 16 15 30 27 31 27 1 0
9 -13 18 -30z m4675 -315 c12 -222 13 -461 3 -636 -13 -237 -23 -68 -28 451
-4 516 4 576 25 185z m1494 -189 c65 -120 67 -137 35 -284 -42 -194 -82 -326
-127 -421 -28 -57 -109 -151 -131 -151 -17 0 -7 48 25 119 13 30 23 56 21 58
-13 12 -106 -150 -107 -187 -1 -8 -8 -1 -17 15 -9 17 -24 41 -34 54 -15 19
-19 41 -19 106 0 71 4 90 30 143 37 72 126 159 208 202 l57 29 -40 0 c-82 0
-183 -58 -231 -133 -16 -24 -35 -52 -42 -62 -10 -16 -11 6 -7 121 8 218 14
252 57 362 l41 103 23 -25 c19 -20 33 -25 73 -25 63 0 97 15 113 52 7 15 14
28 15 28 1 0 27 -47 57 -104z"/>
</g>
</svg>
